 http://www.imdb.com/title/tt1104001/

Source: Tron.Legacy.2010.BluRay.720p.DTS.x264-CHD Thanks!

Subs: Arabic, Brazilian, Bulgarian, Croatian, Danish, Dutch, English, Farsi-Persian, Finnish, French, Greek, Hebrew, Hungarian, Indonesian, Italian, Malay, Polish, Portuguese, Romanian, Russian, Slovenian, Spanish, Swedish, Turkish and Vietnamese.

Sample and Screens included.

General
Complete name                    : Tron Legacy-720p MP4 AAC x264 BRRip 2010-CC.mp4
Format                           : MPEG-4
Format profile                   : Base Media
Codec ID                         : isom
File size                        : 2.31 GiB
Duration                         : 2h 5mn
Overall bit rate                 : 2 643 Kbps
Encoded date                     : UTC 2012-07-21 13:37:06

Video
ID                               : 1
Format                           : AVC
Format/Info                      : Advanced Video Codec
Format profile                   : High@L3.1
Format settings, CABAC           : Yes
Format settings, ReFrames        : 5 frames
Codec ID                         : avc1
Codec ID/Info                    : Advanced Video Coding
Duration                         : 2h 5mn
Bit rate mode                    : Variable
Bit rate                         : 2 255 Kbps
Nominal bit rate                 : 2 271 Kbps
Maximum bit rate                 : 12.8 Mbps
Width                            : 1 280 pixels
Height                           : 544 pixels
Display aspect ratio             : 2.35:1
Frame rate mode                  : Variable
Frame rate                       : 23.976 fps
Minimum frame rate               : 15.873 fps
Maximum frame rate               : 24.390 fps
Resolution                       : 24 bits
Colorimetry                      : 4:2:0
Scan type                        : Progressive
Bits/(Pixel*Frame)               : 0.135
Stream size                      : 1.97 GiB (85%)
Writing library                  : x264 core 112

Audio
ID                               : 2
Format                           : AAC
Format/Info                      : Advanced Audio Codec
Format version                   : Version 4
Format profile                   : LC
Format settings, SBR             : No
Codec ID                         : 40
Duration                         : 2h 5mn
Bit rate mode                    : Variable
Bit rate                         : 384 Kbps
Maximum bit rate                 : 599 Kbps
Channel(s)                       : 6 channels
Channel positions                : Front: L C R, Rear: L R, LFE
Sampling rate                    : 48.0 KHz
Resolution                       : 16 bits
Stream size                      : 343 MiB (15%)
Language                         : English

Enjoy...

Requested by Clair.